<?xml version="1.0" standalone="no"?>
<!DOCTYPE svg PUBLIC "-//W3C//DTD SVG 20010904//EN"
 "http://www.w3.org/TR/2001/REC-SVG-20010904/DTD/svg10.dtd">
<svg version="1.0" xmlns="http://www.w3.org/2000/svg"
 width="536.000000pt" height="536.000000pt" viewBox="0 0 536.000000 536.000000"
 preserveAspectRatio="xMidYMid meet">

<g transform="translate(0.000000,536.000000) scale(0.100000,-0.100000)"
fill="#000000" stroke="none">
<path d="M2435 5349 c-814 -71 -1562 -526 -2012 -1222 -405 -629 -527 -1426
-328 -2152 48 -175 95 -297 185 -480 281 -574 776 -1039 1363 -1284 908 -378
1945 -231 2717 385 109 87 317 295 404 404 352 442 550 955 585 1521 61 957
-393 1861 -1204 2401 -133 88 -387 217 -539 273 -363 134 -776 188 -1171 154z
m629 -59 c439 -66 841 -234 1199 -502 73 -55 184 -154 278 -247 233 -234 372
-430 515 -726 438 -910 313 -1990 -322 -2785 -88 -109 -295 -316 -404 -404
-801 -640 -1890 -761 -2807 -312 -282 138 -475 277 -704 505 -415 416 -661
901 -750 1482 -27 171 -32 530 -11 689 64 476 232 898 503 1260 455 609 1119
983 1879 1059 147 15 463 5 624 -19z"/>
<path d="M2132 5173 c-102 -50 -116 -201 -27 -290 40 -41 45 -43 101 -43 44 0
69 6 98 24 21 13 47 21 58 19 22 -6 22 -4 2 86 -16 69 -17 71 -43 65 -36 -9
-35 -8 -22 -56 10 -39 9 -45 -10 -61 -66 -55 -154 -19 -179 71 -26 98 71 180
149 126 21 -15 24 -15 38 -1 22 21 10 45 -32 62 -45 19 -92 19 -133 -2z"/>
<path d="M2705 5116 c-44 -19 -65 -56 -65 -114 0 -150 198 -163 226 -16 9 47
-15 98 -58 124 -38 23 -61 24 -103 6z m92 -62 c20 -20 24 -31 19 -57 -13 -63
-66 -87 -106 -47 -41 41 -14 130 40 130 12 0 32 -12 47 -26z"/>
<path d="M2449 5105 c-28 -15 -59 -70 -59 -104 0 -34 26 -87 51 -105 48 -33
175 -9 167 32 -4 19 -19 19 -66 1 -28 -12 -37 -11 -59 1 -47 27 -38 37 44 52
l78 13 -2 35 c-3 70 -87 111 -154 75z m79 -41 c31 -21 27 -40 -9 -48 -47 -9
-79 -7 -79 4 0 13 45 60 57 60 5 0 19 -7 31 -16z"/>
<path d="M2950 5087 c-55 -43 -67 -126 -26 -170 30 -33 70 -43 103 -28 31 14
38 9 24 -18 -16 -29 -52 -35 -96 -16 -31 12 -40 13 -47 3 -13 -21 -10 -25 26
-42 34 -16 101 -21 131 -10 27 11 44 58 60 165 13 83 13 104 3 111 -20 12 -36
10 -46 -7 -7 -14 -11 -13 -27 5 -21 23 -80 27 -105 7z m108 -55 c29 -38 -3
-112 -48 -112 -28 0 -60 35 -60 65 0 36 44 78 73 70 12 -4 28 -14 35 -23z"/>
<path d="M1696 5037 c-78 -44 -97 -133 -48 -228 34 -68 78 -99 141 -99 55 0
103 27 131 72 25 42 25 42 -4 56 -21 9 -26 8 -31 -7 -10 -34 -54 -65 -90 -65
-67 0 -126 89 -111 168 11 57 71 84 134 63 20 -7 22 -5 22 21 0 18 -6 32 -16
36 -32 12 -90 5 -128 -17z"/>
<path d="M3190 5039 c0 -12 -9 -62 -21 -111 -12 -49 -19 -91 -17 -92 1 -2 12
-6 24 -10 18 -6 22 1 38 69 20 83 37 102 79 86 20 -8 27 -6 31 5 14 36 7 44
-38 44 -24 0 -46 4 -48 9 -1 4 -13 12 -25 15 -19 6 -23 4 -23 -15z"/>
<path d="M3371 4975 c-61 -52 -63 -148 -3 -195 21 -18 36 -21 68 -16 36 5 43
2 47 -14 3 -11 14 -20 24 -20 15 0 22 12 31 48 7 26 24 72 38 102 24 51 24 55
8 67 -14 10 -20 10 -32 0 -12 -9 -16 -9 -20 1 -18 55 -109 70 -161 27z m102
-26 c30 -16 37 -28 37 -65 0 -63 -59 -99 -103 -63 -44 34 -35 99 18 127 25 14
22 14 48 1z"/>
<path d="M3648 4888 c-6 -17 -35 -80 -64 -140 -50 -101 -52 -108 -34 -118 27
-15 27 -14 54 37 l23 47 16 -31 c19 -35 34 -43 87 -43 75 0 130 78 109 155
-15 52 -46 77 -92 73 -33 -3 -38 -1 -33 15 3 13 -3 21 -20 28 -35 13 -34 13
-46 -23z m124 -75 c40 -36 5 -123 -50 -123 -58 0 -81 64 -41 114 24 30 63 34
91 9z"/>
<path d="M1415 4894 c-94 -49 -135 -76 -128 -87 4 -7 26 -41 49 -77 23 -36 53
-87 67 -115 49 -97 43 -95 135 -40 78 47 102 74 102 116 0 36 -29 77 -63 90
-29 10 -32 15 -29 45 3 25 -2 39 -22 58 -29 30 -67 33 -111 10z m70 -54 c25
-27 10 -58 -43 -88 l-40 -22 -21 34 c-12 18 -21 38 -21 43 0 12 70 52 91 53 9
0 24 -9 34 -20z m89 -133 c13 -36 1 -55 -52 -85 l-41 -23 -26 40 c-31 45 -28
53 23 81 51 27 84 22 96 -13z"/>
<path d="M3970 4861 c0 -4 -36 -66 -81 -137 -79 -127 -86 -150 -51 -162 7 -2
31 26 54 62 37 58 45 66 73 66 66 0 70 -33 15 -119 -22 -34 -40 -65 -40 -69 0
-4 9 -13 19 -19 17 -11 24 -4 70 66 54 81 62 118 34 146 -22 23 -62 37 -84 30
-27 -9 -24 3 18 64 36 51 36 54 18 67 -21 16 -45 18 -45 5z"/>
<path d="M1181 4749 l-24 -19 82 -100 c93 -114 98 -133 46 -179 -61 -53 -74
-46 -180 92 -36 48 -70 87 -74 87 -4 0 -16 -9 -26 -19 -17 -19 -14 -23 75
-131 55 -65 102 -113 116 -116 35 -9 82 14 137 64 72 68 68 89 -39 227 -47 61
-87 111 -87 112 -1 1 -13 -7 -26 -18z"/>
<path d="M2440 4749 c-280 -31 -607 -143 -840 -286 -763 -470 -1141 -1337
-964 -2211 156 -774 753 -1401 1518 -1597 392 -100 798 -86 1184 41 526 172
968 558 1213 1059 147 300 211 579 211 920 0 341 -64 620 -211 920 -313 640
-933 1075 -1646 1155 -105 12 -357 11 -465 -1z m457 -525 c169 -103 310 -188
312 -190 2 -2 -8 -22 -23 -45 -33 -49 -33 -49 65 -103 l67 -37 38 65 c34 59
39 64 58 54 18 -10 194 -117 254 -155 l23 -14 -19 -33 c-11 -18 -27 -44 -36
-58 l-16 -25 76 -46 c42 -26 79 -47 83 -47 3 0 17 20 31 45 14 25 26 45 27 45
15 0 658 -400 658 -409 0 -18 -238 -411 -249 -411 -7 0 -476 281 -628 376
l-37 24 63 102 c34 57 68 112 74 124 10 19 5 25 -63 68 -41 26 -79 45 -83 42
-5 -3 -42 -61 -82 -128 -40 -68 -75 -125 -76 -127 -2 -2 -26 8 -53 22 -27 15
-51 27 -54 27 -2 0 -16 -18 -31 -40 l-26 -40 20 -32 c23 -38 27 -115 7 -142
-12 -17 -23 -12 -148 64 -200 124 -183 109 -162 132 35 39 73 51 139 45 l62
-6 26 39 26 40 -50 31 c-27 17 -50 34 -50 39 0 4 32 60 72 125 69 113 71 118
52 132 -24 19 -135 75 -139 71 -1 -2 -30 -48 -65 -103 -34 -55 -68 -106 -74
-112 -9 -10 -84 31 -336 185 -179 108 -327 201 -329 205 -2 5 52 101 120 213
121 200 124 203 146 189 12 -8 161 -99 330 -201z m-408 -579 c74 -38 41 -136
-74 -225 -30 -23 -55 -46 -55 -51 0 -5 18 -39 41 -75 22 -37 37 -70 32 -74 -4
-4 -111 -69 -238 -145 -126 -76 -234 -141 -238 -145 -8 -7 71 -140 84 -140 4
0 39 14 79 31 39 16 76 29 81 27 8 -3 130 -191 126 -194 -24 -22 -401 -243
-406 -239 -5 2 -28 37 -51 77 -24 40 -49 82 -57 94 -12 19 -8 25 51 75 36 30
65 57 65 61 1 10 -70 127 -81 134 -4 3 -115 -56 -246 -132 -130 -75 -240 -139
-244 -141 -4 -2 -30 36 -59 84 -28 49 -52 89 -53 90 -1 1 -24 -4 -51 -12 -103
-31 -208 -12 -221 41 -34 133 349 369 510 313 58 -20 73 -55 48 -111 -18 -40
-92 -118 -156 -163 l-28 -20 17 -42 c10 -24 21 -43 26 -43 7 0 885 504 917
526 2 1 -7 20 -19 42 l-23 40 -56 -20 c-83 -29 -167 -33 -210 -11 -29 15 -36
24 -38 56 -4 47 21 90 89 151 131 117 349 188 438 141z m1922 -1421 c17 -8 38
-29 47 -46 10 -17 24 -39 33 -50 14 -19 17 -20 47 -4 33 17 79 21 100 8 10 -7
8 -22 -8 -74 -23 -75 -97 -259 -110 -272 -5 -4 -17 9 -28 30 -59 114 -185 153
-335 103 -47 -16 -62 -18 -66 -8 -9 28 -79 91 -130 117 -29 15 -60 39 -69 53
-15 26 -14 29 17 67 34 44 101 82 144 82 15 0 44 -7 66 -16 36 -14 42 -14 70
0 72 38 162 42 222 10z m-3332 -137 c56 -49 101 -92 101 -96 0 -4 -9 -16 -20
-26 -19 -17 -21 -17 -60 19 -22 20 -46 36 -53 36 -6 0 -41 -25 -77 -56 -36
-31 -86 -73 -111 -95 l-47 -39 -30 75 -31 75 57 53 c31 29 80 74 107 100 28
26 53 45 57 44 3 -1 52 -42 107 -90z m478 -19 l125 -111 -31 -31 -31 -30 -38
37 c-21 20 -46 37 -55 37 -9 0 -67 -39 -128 -86 l-110 -87 -59 58 -59 58 127
133 c70 73 129 133 130 134 2 0 60 -50 129 -112z m1903 71 c25 -11 57 -32 72
-46 l27 -26 51 33 c88 56 172 51 227 -14 l26 -31 -57 -7 c-185 -24 -268 -100
-337 -308 l-31 -98 -47 -5 c-25 -3 -47 -4 -48 -4 -1 1 6 29 14 62 12 48 13 69
4 111 -15 66 -61 136 -116 175 -39 28 -43 34 -34 55 26 70 101 124 169 124 19
0 55 -10 80 -21z m-667 -50 c23 -12 52 -30 64 -42 l22 -20 -40 -46 c-23 -25
-47 -58 -55 -73 -13 -25 -16 -26 -51 -16 -55 15 -161 5 -209 -20 -47 -24 -73
-59 -81 -108 -3 -19 -9 -34 -13 -34 -5 0 -41 41 -80 90 -71 89 -72 91 -54 111
49 54 126 83 172 63 31 -13 33 -12 70 28 77 83 172 108 255 67z m-803 -97 l64
-74 -106 -104 c-57 -57 -109 -104 -114 -104 -5 1 -47 36 -93 78 l-84 78 119
116 c110 109 120 116 135 100 8 -9 44 -50 79 -90z m1156 2 c84 -42 150 -112
169 -179 14 -48 15 -60 2 -107 -8 -29 -21 -67 -28 -85 -7 -18 -10 -35 -6 -39
4 -4 30 -2 58 4 66 16 191 15 243 0 93 -28 158 -142 158 -278 1 -108 -27 -175
-99 -239 l-55 -50 21 -43 c22 -45 26 -74 15 -103 -14 -36 -257 -136 -452 -185
-65 -17 -120 -30 -124 -30 -5 0 -8 74 -8 164 l0 163 105 103 c58 57 105 110
105 117 0 31 -39 7 -126 -77 -51 -50 -97 -90 -102 -90 -5 0 -51 63 -102 140
-64 96 -99 140 -111 140 -11 0 -19 -5 -19 -10 0 -6 47 -81 105 -168 l106 -158
-3 -164 -3 -164 -35 -8 c-19 -4 -87 -10 -150 -14 l-115 -6 -27 46 c-16 26 -28
50 -28 54 0 4 24 16 53 26 123 44 157 58 157 68 0 5 -90 133 -200 284 -119
164 -195 276 -187 279 6 2 51 9 100 15 69 10 87 15 87 29 0 9 -41 67 -91 130
l-91 115 7 45 c10 71 34 103 90 124 49 19 121 19 196 1 23 -5 31 0 59 43 51
74 71 94 125 120 64 31 122 27 201 -13z m812 -13 c43 -22 96 -78 107 -111 8
-25 16 -24 105 9 64 24 147 27 193 7 43 -18 93 -76 108 -126 15 -49 7 -70 -85
-210 -109 -167 -336 -419 -336 -374 0 11 32 61 70 111 39 50 70 99 70 107 0
35 -32 12 -90 -64 -34 -44 -65 -78 -69 -76 -4 3 -47 70 -96 150 -48 80 -94
147 -101 150 -38 15 -17 -36 75 -187 125 -203 128 -222 52 -286 -56 -47 -269
-191 -282 -191 -5 0 -9 11 -9 25 0 14 -6 41 -14 59 -14 33 -14 34 26 72 111
108 134 292 57 451 -44 90 -120 141 -211 143 -45 0 -47 10 -19 91 58 171 122
236 266 273 39 10 145 -3 183 -23z m-2803 -111 c54 -54 97 -101 94 -103 -2 -2
-46 -36 -96 -76 -51 -40 -93 -79 -93 -86 0 -7 29 -30 65 -50 36 -20 65 -37 65
-39 0 -10 -122 -96 -130 -91 -30 18 -220 332 -220 363 0 9 197 182 208 182 4
0 52 -45 107 -100z m1240 -173 c109 -136 196 -249 194 -251 -2 -2 -44 -9 -93
-16 -101 -13 -110 -16 -102 -37 3 -8 94 -136 202 -284 108 -148 195 -272 192
-274 -2 -2 -46 -19 -98 -38 -63 -22 -96 -40 -98 -51 -2 -9 8 -36 22 -61 14
-24 26 -46 26 -49 0 -9 -85 -7 -185 4 -284 33 -575 130 -815 272 -52 31 -104
63 -114 71 -18 13 -12 23 126 194 177 219 183 227 166 240 -7 6 -48 16 -90 23
-43 7 -78 16 -78 21 0 4 118 120 262 258 204 195 265 248 274 238 6 -6 100
-124 209 -260z m-642 23 l50 -46 -113 -106 c-76 -73 -111 -113 -108 -125 3
-16 40 -27 185 -53 7 -1 -290 -360 -298 -360 -29 0 -369 320 -369 348 0 5 34
37 76 71 41 34 73 68 71 74 -2 7 -31 28 -65 47 -34 19 -62 37 -62 40 1 3 92
75 203 161 l202 157 89 -82 c49 -44 112 -101 139 -126z"/>
<path d="M4109 4588 c-30 -37 -35 -52 -39 -113 l-5 -70 -30 1 c-16 0 -37 2
-45 5 -9 2 -16 -4 -18 -18 -2 -16 5 -26 25 -36 25 -13 37 -12 133 14 95 27
108 33 142 72 21 23 38 44 38 47 0 3 -10 11 -21 18 -19 12 -24 10 -52 -23 -29
-35 -50 -48 -102 -61 -24 -6 -25 -5 -19 42 4 33 17 62 36 87 30 38 30 39 11
58 -19 19 -20 19 -54 -23z"/>
<path d="M1360 843 c-31 -12 -60 -47 -60 -75 0 -15 12 -52 27 -82 22 -46 24
-57 14 -70 -18 -22 -63 -20 -94 4 -32 26 -43 25 -51 -2 -9 -35 -9 -35 37 -57
80 -39 151 -24 177 38 11 27 9 36 -21 95 -28 54 -31 67 -20 80 21 25 44 19 81
-19 32 -33 49 -35 79 -9 10 9 -45 65 -82 83 -44 21 -60 24 -87 14z"/>
<path d="M3797 769 l-26 -20 48 -67 c27 -37 68 -98 91 -137 23 -38 44 -72 46
-74 2 -2 15 2 29 9 18 10 24 19 19 32 -4 13 -1 19 8 17 39 -5 63 4 95 36 33
33 35 39 31 86 -6 62 -45 107 -100 115 -48 8 -108 -21 -122 -58 -6 -15 -14
-28 -17 -28 -4 0 -22 25 -39 55 -17 30 -33 55 -34 55 -2 0 -15 -9 -29 -21z
m269 -87 c8 -9 14 -29 14 -43 1 -69 -81 -98 -127 -45 -27 32 -29 53 -7 84 30
44 89 46 120 4z"/>
<path d="M1719 642 c-6 -15 -19 -49 -29 -77 -10 -27 -32 -86 -50 -130 -30 -75
-30 -80 -14 -92 30 -22 38 -15 63 50 13 34 28 68 34 75 15 19 72 15 92 -7 16
-19 16 -23 -11 -93 -16 -40 -30 -75 -32 -79 -3 -6 49 -32 53 -27 10 11 65 163
65 179 0 53 -53 86 -120 75 l-39 -6 29 66 c17 36 30 67 30 69 0 2 -14 8 -30
14 -28 9 -32 8 -41 -17z"/>
<path d="M3788 633 c-10 -3 -18 -13 -18 -23 0 -16 -6 -18 -33 -13 -68 11 -137
-50 -137 -119 0 -51 25 -93 66 -113 57 -27 112 -12 153 42 16 22 23 25 30 14
6 -10 13 -11 30 -2 11 7 21 16 21 21 0 5 -18 43 -40 85 -22 42 -40 82 -40 90
0 17 -10 23 -32 18z m0 -109 c27 -31 28 -54 1 -88 -24 -31 -81 -36 -111 -9
-24 21 -24 85 0 105 38 34 74 31 110 -8z"/>
<path d="M1489 615 c-36 -20 -63 -78 -55 -121 9 -47 50 -91 97 -105 43 -13 46
-13 51 15 2 14 -5 21 -28 28 -38 10 -52 25 -60 66 -5 25 -1 36 19 56 33 33 67
33 105 1 26 -22 31 -23 42 -10 43 52 -97 110 -171 70z"/>
<path d="M3311 549 c-17 -7 -21 -14 -16 -27 12 -28 91 -255 97 -279 l6 -22
102 34 c56 19 108 35 116 35 16 0 20 45 5 54 -5 4 -44 -7 -87 -24 -42 -16 -81
-27 -85 -24 -5 3 -27 63 -50 134 -23 72 -46 130 -53 129 -6 0 -22 -5 -35 -10z"/>
<path d="M1929 416 c-14 -50 -8 -98 19 -159 25 -57 49 -61 100 -16 l36 32 22
-52 c30 -66 49 -66 119 -1 40 39 56 62 64 97 7 25 11 47 9 48 -2 2 -15 6 -30
10 -24 6 -26 4 -33 -36 -5 -26 -19 -55 -40 -77 l-32 -36 -17 32 c-19 37 -20
67 -5 112 9 26 9 34 -2 41 -31 19 -47 10 -54 -32 -6 -37 -56 -109 -75 -109
-18 0 -37 73 -29 109 13 57 11 68 -16 73 -22 5 -26 1 -36 -36z"/>
<path d="M2807 433 c-4 -3 -4 -23 -1 -43 5 -32 3 -38 -14 -42 -11 -3 -25 -1
-31 5 -7 7 -22 6 -50 -5 -31 -13 -41 -13 -45 -3 -3 8 -15 11 -31 7 -25 -4 -27
-8 -21 -41 3 -20 6 -71 6 -113 l0 -78 30 0 30 0 0 84 c0 90 4 96 55 96 13 0
29 8 34 18 6 9 11 12 11 6 0 -7 9 -14 20 -17 17 -4 20 -14 20 -65 0 -34 4 -72
10 -86 8 -23 15 -26 54 -26 57 0 76 8 76 32 0 16 -5 18 -34 13 -18 -4 -36 -3
-39 2 -3 5 -9 36 -12 70 l-7 62 36 6 c26 5 36 12 36 26 0 13 -9 19 -37 21 -36
3 -38 5 -35 34 2 26 -1 33 -20 38 -29 7 -33 7 -41 -1z"/>
<path d="M3085 389 c-27 -5 -65 -11 -82 -14 -25 -5 -33 -11 -33 -26 0 -20 4
-21 61 -14 71 8 71 14 -3 -87 -36 -49 -48 -73 -43 -88 5 -14 12 -19 28 -15 87
20 116 25 145 25 27 0 32 4 32 25 0 29 1 28 -70 15 -29 -6 -55 -8 -57 -6 -3 2
18 37 46 77 49 69 65 120 39 118 -7 -1 -35 -5 -63 -10z"/>
<path d="M2393 373 c-32 -6 -79 -56 -86 -91 -19 -96 70 -174 157 -138 47 20
46 19 46 1 0 -9 9 -15 25 -15 28 0 32 10 39 110 2 36 7 75 11 86 5 17 2 23
-17 28 -14 4 -26 1 -32 -8 -8 -12 -14 -11 -35 5 -28 20 -73 30 -108 22z m94
-65 c46 -43 14 -128 -49 -128 -65 0 -93 77 -45 128 26 28 64 28 94 0z"/>
</g>
</svg>
