<?xml version="1.0" standalone="no"?>
<!DOCTYPE svg PUBLIC "-//W3C//DTD SVG 20010904//EN"
 "http://www.w3.org/TR/2001/REC-SVG-20010904/DTD/svg10.dtd">
<svg version="1.0" xmlns="http://www.w3.org/2000/svg"
 width="536.000000pt" height="536.000000pt" viewBox="0 0 536.000000 536.000000"
 preserveAspectRatio="xMidYMid meet">

<g transform="translate(0.000000,536.000000) scale(0.100000,-0.100000)"
fill="#000000" stroke="none">
<path d="M2441 5350 c-410 -40 -816 -174 -1161 -384 -313 -191 -629 -498 -841
-816 -81 -122 -222 -402 -274 -544 -317 -866 -170 -1819 394 -2561 89 -118
331 -363 451 -459 656 -519 1511 -703 2324 -499 949 238 1701 990 1939 1939
185 735 52 1513 -366 2139 -195 293 -486 579 -780 769 -315 203 -680 340
-1061 397 -152 23 -480 33 -625 19z m459 -40 c899 -80 1679 -597 2112 -1400
98 -182 193 -440 242 -660 77 -350 79 -753 5 -1115 -159 -769 -688 -1453
-1398 -1809 -377 -190 -754 -278 -1181 -278 -509 0 -968 130 -1395 395 -221
137 -494 378 -655 578 -649 806 -772 1903 -316 2824 265 535 666 936 1201
1201 429 213 917 305 1385 264z"/>
<path d="M2130 5168 c-72 -38 -101 -128 -70 -222 13 -40 68 -93 106 -102 41
-11 114 2 145 25 20 15 37 20 51 15 18 -5 20 -3 15 17 -4 13 -12 49 -18 80
-11 54 -12 55 -41 51 -32 -5 -32 -9 -12 -79 5 -18 -1 -26 -27 -42 -46 -29 -91
-27 -128 5 -82 68 -49 214 49 214 19 0 46 -7 59 -17 23 -15 25 -15 38 3 18 25
13 36 -28 56 -46 24 -86 23 -139 -4z"/>
<path d="M2703 5116 c-89 -40 -81 -195 11 -226 96 -31 183 67 143 163 -26 61
-94 89 -154 63z m96 -62 c12 -15 21 -37 21 -49 0 -58 -71 -95 -112 -58 -27 24
-25 97 4 117 33 23 64 19 87 -10z"/>
<path d="M2441 5095 c-89 -76 -47 -215 66 -215 54 0 106 24 101 48 -4 19 -19
19 -66 1 -28 -12 -37 -11 -59 1 -46 26 -38 37 34 50 38 6 75 15 82 19 21 13 4
67 -31 96 -39 33 -87 33 -127 0z m87 -31 c31 -21 27 -40 -9 -48 -47 -9 -79 -7
-79 4 0 13 45 60 57 60 5 0 19 -7 31 -16z"/>
<path d="M2940 5073 c-84 -75 -17 -223 83 -185 35 13 46 8 31 -15 -21 -34 -42
-39 -91 -21 -36 13 -49 14 -55 5 -13 -20 -10 -24 32 -41 78 -31 147 -14 164
41 8 26 37 215 34 218 -2 1 -13 5 -24 9 -15 5 -24 2 -28 -9 -5 -15 -9 -14 -32
4 -37 29 -77 27 -114 -6z m110 -33 c39 -39 12 -120 -40 -120 -28 0 -60 35 -60
65 0 29 40 75 65 75 8 0 24 -9 35 -20z"/>
<path d="M1701 5038 c-49 -24 -80 -78 -81 -138 0 -49 42 -133 80 -160 44 -31
114 -37 160 -13 45 23 85 81 69 99 -18 21 -38 17 -51 -12 -13 -28 -55 -54 -87
-54 -25 0 -77 44 -96 81 -17 33 -20 92 -5 120 23 41 77 55 134 33 12 -5 16 1
16 24 0 22 -6 31 -22 36 -41 11 -72 6 -117 -16z"/>
<path d="M3176 4966 c-10 -50 -21 -101 -23 -113 -4 -19 -1 -23 20 -23 22 0 26
7 41 67 22 84 31 96 69 87 30 -6 47 6 47 35 0 10 -11 12 -45 9 -32 -4 -45 -2
-45 7 0 7 -10 15 -23 17 -21 4 -24 -2 -41 -86z"/>
<path d="M3371 4974 c-39 -32 -57 -92 -41 -138 17 -52 44 -71 100 -70 40 2 49
-1 53 -18 12 -42 39 -14 67 69 15 46 33 90 41 99 11 13 10 17 -2 25 -19 12
-39 11 -39 -2 0 -6 -15 6 -34 25 -43 46 -98 50 -145 10z m127 -42 c6 -9 12
-31 12 -49 0 -39 -37 -83 -70 -83 -47 0 -76 71 -49 121 21 39 80 45 107 11z"/>
<path d="M3599 4780 l-67 -138 24 -11 c22 -10 26 -7 48 36 l23 47 16 -31 c19
-35 34 -43 87 -43 48 0 86 30 104 84 27 77 -23 153 -94 143 -31 -4 -36 -2 -36
15 1 12 -8 24 -19 28 -18 7 -27 -8 -86 -130z m175 34 c39 -39 2 -124 -55 -124
-36 0 -59 24 -59 63 0 61 75 101 114 61z"/>
<path d="M1363 4864 l-83 -45 37 -57 c20 -31 59 -97 86 -145 27 -48 52 -87 56
-85 51 24 145 85 161 105 24 30 25 52 6 97 -10 23 -25 38 -48 46 -30 11 -33
16 -30 46 3 25 -2 39 -22 58 -36 37 -68 33 -163 -20z m121 -20 c30 -29 13 -65
-44 -94 l-40 -20 -20 32 c-28 46 -25 55 18 77 45 25 66 26 86 5z m86 -125 c18
-33 7 -62 -35 -91 -22 -15 -44 -27 -50 -28 -9 0 -55 71 -55 84 0 3 17 17 37
31 46 31 88 33 103 4z"/>
<path d="M3952 4824 c-15 -25 -53 -86 -84 -135 -32 -50 -58 -94 -58 -99 0 -5
9 -14 19 -19 16 -9 25 -2 61 54 37 58 46 65 74 65 67 0 72 -37 16 -120 -22
-32 -40 -63 -40 -67 0 -5 8 -13 19 -20 17 -10 24 -3 70 66 28 43 51 89 51 103
0 35 -41 70 -84 71 -33 1 -49 18 -28 31 5 3 21 23 37 46 27 39 28 41 9 55 -28
21 -32 19 -62 -31z"/>
<path d="M1181 4749 l-24 -19 42 -50 c22 -28 59 -72 81 -98 51 -61 52 -90 5
-131 -60 -52 -75 -46 -171 80 -65 85 -79 97 -94 89 -34 -18 -32 -30 22 -93 30
-34 71 -83 91 -109 21 -27 50 -51 64 -55 56 -14 183 87 183 145 0 15 -8 39
-18 53 -15 24 -135 182 -151 201 -3 4 -17 -2 -30 -13z"/>
<path d="M2440 4749 c-892 -103 -1627 -776 -1805 -1654 -137 -675 62 -1367
535 -1858 188 -196 356 -320 585 -432 789 -387 1724 -246 2360 357 380 360
609 850 644 1378 28 424 -74 847 -291 1209 -330 548 -891 913 -1531 996 -126
16 -373 18 -497 4z m440 -514 c179 -109 327 -199 328 -200 2 -2 -8 -24 -23
-49 l-26 -45 78 -45 78 -45 41 64 40 65 138 -84 c76 -47 142 -88 147 -93 5 -5
-7 -34 -25 -65 l-35 -57 72 -42 c40 -23 75 -44 79 -46 4 -2 19 16 34 39 15 24
28 45 30 46 3 5 633 -376 653 -394 12 -11 -5 -45 -110 -218 -68 -113 -128
-206 -133 -206 -8 0 -480 282 -613 367 l-52 33 63 103 c98 159 97 137 10 191
-41 25 -76 46 -78 46 -2 0 -39 -57 -82 -127 -42 -71 -79 -130 -81 -133 -2 -2
-26 8 -53 23 -26 15 -50 27 -53 27 -2 0 -16 -17 -29 -38 -25 -37 -25 -37 -7
-72 26 -47 24 -160 -2 -160 -5 0 -68 36 -141 81 -203 124 -183 107 -161 131
35 39 72 51 139 45 l62 -6 26 39 25 38 -49 32 c-28 18 -50 36 -50 41 0 4 32
60 71 124 41 66 68 120 63 125 -14 13 -145 83 -148 79 -2 -2 -34 -52 -70 -111
-37 -59 -71 -110 -75 -112 -8 -6 -662 388 -663 399 -2 12 245 415 251 411 3
-2 152 -93 331 -201z m-391 -590 c51 -26 54 -71 10 -139 -18 -26 -56 -66 -85
-88 -30 -22 -54 -44 -54 -49 0 -5 18 -39 41 -75 22 -37 37 -70 32 -74 -4 -4
-107 -67 -228 -140 -121 -73 -228 -138 -237 -145 -16 -10 -14 -17 21 -73 21
-35 41 -65 44 -68 3 -3 39 9 81 26 42 18 80 30 86 28 5 -1 36 -46 69 -97 54
-85 58 -96 43 -106 -9 -7 -100 -62 -201 -124 -118 -73 -187 -109 -193 -103 -5
5 -34 50 -63 98 l-54 89 65 59 65 58 -32 57 c-53 95 -30 99 -280 -46 -123 -72
-234 -135 -246 -142 -21 -11 -25 -6 -74 76 -28 49 -52 89 -53 90 -1 1 -26 -5
-55 -14 -34 -9 -77 -14 -118 -11 -55 3 -69 8 -85 28 -76 93 141 290 371 338
72 15 85 15 123 2 53 -18 74 -54 58 -97 -21 -53 -64 -105 -128 -150 -47 -34
-61 -50 -57 -62 4 -9 12 -28 17 -43 5 -16 14 -28 19 -28 10 0 889 508 906 524
10 8 7 18 -9 44 -23 37 -19 36 -118 8 -76 -22 -138 -20 -177 4 -28 16 -33 26
-33 56 0 47 28 92 97 153 128 115 343 182 432 136z m1886 -1406 c39 -11 105
-69 105 -93 0 -27 21 -35 56 -20 37 16 82 18 102 6 16 -11 -11 -102 -75 -256
l-46 -109 -20 39 c-62 124 -186 165 -339 113 -48 -17 -63 -19 -66 -9 -11 31
-77 90 -126 111 -37 17 -59 34 -71 56 -18 32 -17 33 8 67 55 72 141 101 211
72 27 -11 43 -13 56 -6 24 13 119 38 145 39 11 1 38 -4 60 -10z m-3297 -150
c56 -49 102 -94 102 -98 0 -4 -9 -16 -20 -26 -19 -17 -21 -17 -56 11 -20 16
-42 33 -49 38 -9 7 -38 -11 -100 -65 -48 -41 -100 -84 -115 -96 l-28 -23 -31
76 -31 77 68 61 c37 34 85 79 107 99 22 20 42 37 45 37 3 0 51 -41 108 -91z
m477 -16 c68 -60 124 -112 124 -117 1 -13 -40 -56 -54 -56 -6 0 -26 16 -45 35
-19 19 -42 35 -53 35 -10 0 -62 -34 -115 -77 -53 -42 -103 -81 -110 -86 -10
-8 -28 5 -72 48 l-59 58 126 134 c69 73 128 133 130 133 3 0 61 -48 128 -107z
m1886 77 c19 -5 54 -26 77 -46 l42 -36 51 32 c87 56 171 51 226 -14 l26 -31
-59 -7 c-181 -23 -278 -117 -344 -335 l-21 -71 -47 -5 c-26 -3 -48 -4 -50 -2
-1 1 3 15 9 31 17 43 14 143 -4 187 -20 46 -55 90 -105 130 -41 32 -42 44 -6
99 43 66 120 92 205 68z m-646 -60 c23 -11 52 -31 65 -45 l23 -25 -25 -20
c-14 -11 -40 -42 -57 -69 -31 -47 -33 -49 -64 -40 -55 16 -138 10 -197 -14
-42 -17 -59 -31 -77 -62 -12 -22 -23 -50 -23 -62 0 -13 -4 -23 -9 -23 -5 0
-42 41 -81 90 l-73 91 24 25 c12 13 46 36 75 50 49 24 54 24 87 11 l35 -15 43
44 c81 83 170 105 254 64z m-820 -80 c42 -50 75 -94 73 -98 -6 -14 -205 -202
-214 -202 -5 0 -47 36 -94 80 l-85 79 120 115 c66 64 121 115 121 116 1 0 36
-41 79 -90z m1194 -29 c144 -85 189 -197 133 -325 -32 -72 -30 -79 21 -69 23
4 92 8 154 8 108 0 113 -1 155 -30 81 -58 129 -199 107 -319 -17 -93 -52 -151
-124 -203 l-30 -21 23 -40 c24 -43 28 -82 11 -113 -20 -38 -271 -138 -464
-185 -55 -13 -103 -24 -107 -24 -5 0 -8 75 -8 168 l0 167 105 98 c58 54 105
105 105 113 0 33 -38 8 -131 -82 l-97 -96 -98 146 c-66 100 -103 146 -116 146
-10 0 -18 -5 -18 -10 0 -6 47 -81 105 -168 l106 -158 -3 -164 -3 -164 -35 -8
c-19 -4 -87 -11 -151 -14 l-116 -7 -26 48 c-15 26 -27 51 -27 54 0 4 43 22 96
41 52 19 100 40 105 47 8 9 -42 84 -190 288 -120 164 -196 277 -188 280 6 2
51 9 100 15 69 10 87 15 87 29 0 9 -41 68 -91 131 -89 112 -91 115 -85 157 9
66 32 102 79 124 48 21 131 25 190 7 37 -11 41 -10 56 11 97 137 152 176 244
168 44 -4 74 -15 126 -46z m789 0 c36 -18 73 -55 113 -112 l16 -23 54 23 c65
28 162 38 212 22 63 -21 128 -107 126 -168 -1 -59 -175 -307 -321 -457 -83
-86 -107 -106 -108 -90 0 12 32 63 70 113 39 51 70 98 70 106 0 34 -33 10 -90
-65 -34 -44 -65 -78 -70 -75 -4 3 -47 70 -95 150 -81 134 -104 160 -120 136
-3 -6 40 -84 95 -174 129 -212 130 -222 33 -300 -69 -56 -251 -177 -265 -177
-4 0 -8 11 -8 25 0 14 -6 41 -14 60 -14 34 -14 34 33 82 63 63 93 141 94 243
1 192 -94 323 -244 338 l-51 5 6 40 c8 49 65 174 101 221 54 71 152 109 262
101 34 -2 80 -13 101 -24z m-2803 -111 c60 -60 96 -103 90 -108 -6 -5 -49 -39
-97 -76 -49 -37 -88 -73 -88 -80 0 -6 29 -29 65 -50 36 -21 65 -39 65 -40 0
-2 -27 -24 -60 -50 -48 -38 -64 -46 -75 -36 -18 15 -141 205 -189 291 l-37 67
103 90 c57 50 108 91 113 91 6 1 55 -44 110 -99z m1239 -170 c108 -135 196
-248 196 -251 0 -3 -44 -12 -97 -20 -53 -8 -98 -19 -100 -24 -2 -6 87 -134
197 -285 110 -151 200 -278 200 -281 0 -4 -43 -22 -96 -40 -53 -19 -99 -41
-102 -48 -3 -8 6 -37 21 -63 15 -26 27 -50 27 -53 0 -8 -84 -6 -188 6 -212 23
-454 91 -647 183 -106 50 -295 161 -295 173 0 3 72 95 161 205 109 136 157
204 151 210 -6 6 -47 18 -92 27 -44 9 -82 18 -83 21 -2 5 91 95 392 383 109
104 137 125 147 115 7 -7 101 -123 208 -258z m-706 80 l113 -104 -112 -112
c-69 -69 -110 -118 -106 -126 3 -9 35 -19 84 -27 44 -7 84 -16 90 -19 12 -8
-272 -362 -290 -362 -21 0 -239 194 -309 275 l-67 77 80 65 c43 35 79 68 79
73 0 5 -29 26 -65 47 -35 21 -64 41 -62 45 1 3 92 76 202 162 l200 155 25 -23
c14 -12 76 -69 138 -126z"/>
<path d="M4106 4583 c-25 -29 -31 -47 -35 -107 -6 -69 -7 -71 -34 -74 -16 -2
-34 1 -41 7 -7 6 -16 8 -19 4 -15 -14 -5 -40 21 -55 26 -15 32 -15 137 17 91
28 114 39 137 67 32 38 34 51 12 68 -13 11 -20 8 -45 -24 -29 -34 -84 -66
-115 -66 -25 0 -6 90 28 133 24 31 27 41 18 52 -18 22 -32 17 -64 -22z"/>
<path d="M1354 840 c-29 -11 -54 -49 -54 -79 0 -13 12 -44 26 -68 35 -60 27
-93 -20 -93 -19 0 -45 9 -61 22 -27 21 -28 21 -41 3 -19 -26 -18 -31 15 -54
59 -42 148 -40 178 5 22 35 19 75 -11 123 -30 47 -32 64 -11 81 22 18 61 4 85
-30 20 -29 22 -29 46 -13 l25 16 -33 35 c-32 33 -84 63 -110 61 -7 0 -23 -4
-34 -9z"/>
<path d="M3803 773 c-13 -8 -23 -19 -23 -23 0 -4 38 -64 84 -133 46 -69 86
-132 88 -139 4 -10 10 -10 31 1 19 10 26 20 21 33 -4 15 0 18 30 18 50 0 96
42 103 96 15 115 -116 186 -198 108 -16 -15 -29 -34 -29 -41 0 -28 -21 -11
-51 42 -17 30 -32 55 -32 54 -1 0 -12 -7 -24 -16z m267 -93 c27 -50 3 -101
-52 -115 -22 -6 -33 -1 -58 23 -33 33 -36 48 -19 86 22 47 105 51 129 6z"/>
<path d="M1723 652 c-3 -9 -30 -80 -59 -157 -29 -77 -50 -143 -46 -147 4 -3
16 -8 26 -10 15 -2 24 10 44 57 13 33 29 66 34 73 13 15 62 16 89 2 25 -14 24
-32 -10 -115 -29 -71 -27 -84 10 -85 18 0 79 137 79 177 0 46 -68 82 -130 68
-29 -6 -30 -6 -20 19 5 14 19 44 30 67 12 22 20 42 18 43 -2 1 -16 7 -31 14
-24 10 -28 9 -34 -6z"/>
<path d="M3788 633 c-10 -3 -18 -13 -18 -23 0 -16 -6 -18 -33 -13 -40 6 -86
-15 -117 -54 -18 -23 -21 -37 -17 -76 10 -113 141 -153 211 -64 20 25 27 28
39 19 10 -9 18 -9 32 2 18 13 17 17 -23 96 -23 45 -42 88 -42 95 0 17 -10 23
-32 18z m-25 -84 c24 -11 47 -47 47 -73 0 -7 -9 -25 -21 -40 -24 -31 -81 -36
-111 -9 -37 33 -19 107 32 126 23 8 27 8 53 -4z"/>
<path d="M1481 605 c-79 -67 -50 -188 52 -216 44 -12 44 -12 49 15 2 15 -5 21
-29 28 -62 16 -82 80 -38 123 30 31 73 32 104 4 25 -23 54 -18 49 8 -2 10 -18
28 -37 40 -48 32 -110 31 -150 -2z"/>
<path d="M3330 553 c-8 -2 -21 -6 -28 -8 -9 -3 -5 -22 14 -72 14 -37 37 -104
51 -148 13 -44 26 -85 28 -91 5 -18 229 60 233 81 7 33 -14 34 -88 5 -41 -16
-80 -29 -86 -30 -10 0 -48 100 -79 213 -9 31 -19 57 -23 56 -4 0 -14 -3 -22
-6z"/>
<path d="M1930 422 c-15 -54 -12 -85 11 -144 31 -78 49 -85 102 -38 19 17 37
30 40 30 3 0 12 -19 22 -42 29 -73 48 -75 115 -12 37 35 54 60 65 97 8 28 14
52 12 53 -1 1 -14 5 -28 9 -24 6 -27 4 -33 -35 -4 -26 -18 -54 -40 -78 l-34
-37 -18 38 c-15 32 -16 45 -7 90 6 28 10 53 9 54 0 1 -13 4 -27 8 -25 6 -27 4
-33 -39 -5 -31 -16 -54 -38 -75 -18 -17 -35 -31 -39 -31 -4 0 -13 17 -21 37
-11 27 -13 47 -6 76 11 48 6 62 -21 70 -17 4 -22 -1 -31 -31z"/>
<path d="M2808 434 c-3 -3 -4 -23 -1 -45 5 -32 3 -39 -11 -39 -22 0 -20 -37 3
-43 15 -4 19 -17 23 -82 6 -86 12 -95 70 -95 49 0 68 8 68 31 0 15 -7 18 -37
16 l-38 -2 -9 63 c-10 69 -4 82 42 82 15 0 22 6 22 20 0 17 -7 20 -40 20 l-41
0 6 34 c6 29 4 34 -17 39 -29 8 -33 8 -40 1z"/>
<path d="M3085 389 c-27 -5 -65 -11 -82 -14 -25 -5 -33 -11 -33 -26 0 -20 4
-21 61 -14 71 8 71 11 -4 -92 -33 -44 -44 -67 -40 -83 4 -15 11 -19 22 -15 9
4 53 12 99 18 77 11 82 13 82 35 0 22 -3 24 -32 18 -18 -4 -50 -9 -71 -13
l-39 -6 56 78 c53 74 71 126 44 124 -7 -1 -35 -5 -63 -10z"/>
<path d="M2374 361 c-40 -18 -48 -28 -65 -85 -13 -45 19 -108 66 -130 37 -18
58 -16 123 10 6 3 12 -1 12 -10 0 -21 46 -21 54 0 3 9 6 41 6 72 0 32 4 72 9
90 9 29 7 34 -12 41 -15 6 -24 4 -30 -5 -6 -11 -13 -10 -35 5 -41 30 -81 33
-128 12z m116 -51 c43 -43 13 -130 -44 -130 -38 0 -56 10 -71 41 -17 31 -7 74
22 97 25 18 70 15 93 -8z"/>
<path d="M2631 352 c-20 -3 -22 -8 -17 -34 3 -17 6 -68 6 -114 l0 -84 30 0 29
0 3 88 3 87 40 5 c32 4 41 9 43 28 4 30 -18 37 -60 19 -26 -11 -37 -12 -44 -3
-5 7 -20 10 -33 8z"/>
</g>
</svg>
